<?xml version="1.0" encoding="UTF-8" standalone="no"?>
<svg
   xmlns:dc="http://purl.org/dc/elements/1.1/"
   xmlns:cc="http://creativecommons.org/ns#"
   xmlns:rdf="http://www.w3.org/1999/02/22-rdf-syntax-ns#"
   xmlns:svg="http://www.w3.org/2000/svg"
   xmlns="http://www.w3.org/2000/svg"
   xmlns:xlink="http://www.w3.org/1999/xlink"
   id="svg8"
   version="1.1"
   viewBox="0 0 12.7 3.96875"
   height="15"
   width="48">
  <defs
     id="defs2">
    <linearGradient
       id="linearGradient852">
      <stop
         id="stop848"
         offset="0"
         style="stop-color:#61c9a8;stop-opacity:1" />
      <stop
         id="stop850"
         offset="1"
         style="stop-color:#f49fbc;stop-opacity:0;" />
    </linearGradient>
    <linearGradient
       id="linearGradient844">
      <stop
         id="stop840"
         offset="0"
         style="stop-color:#61c9a8;stop-opacity:1" />
      <stop
         id="stop842"
         offset="1"
         style="stop-color:#ef2d56;stop-opacity:1" />
    </linearGradient>
    <pattern
       id="EMFhbasepattern"
       patternUnits="userSpaceOnUse"
       width="6"
       height="6"
       x="0"
       y="0" />
    <linearGradient
       gradientTransform="scale(0.90058844,1.1103851)"
       gradientUnits="userSpaceOnUse"
       y2="234.43423"
       x2="15.309208"
       y1="233.742"
       x1="0.30801788"
       id="linearGradient846"
       xlink:href="#linearGradient844" />
    <linearGradient
       gradientTransform="scale(0.90058844,1.1103851)"
       gradientUnits="userSpaceOnUse"
       y2="233.60356"
       x2="15.449723"
       y1="233.742"
       x1="0.30801788"
       id="linearGradient854"
       xlink:href="#linearGradient852" />
  </defs>
  <metadata
     id="metadata5">
    <rdf:RDF>
      <cc:Work
         rdf:about="">
        <dc:format>image/svg+xml</dc:format>
        <dc:type
           rdf:resource="http://purl.org/dc/dcmitype/StillImage" />
        <dc:title></dc:title>
      </cc:Work>
    </rdf:RDF>
  </metadata>
  <g
     transform="translate(0,-293.03125)"
     id="layer1">
    <g
       id="text826"
       style="font-style:normal;font-variant:normal;font-weight:700;font-size:2.52716804px;line-height:125%;font-family:'Back to Black Bold Demo';text-align:start;letter-spacing:0px;word-spacing:0px;text-anchor:start;fill:url(#linearGradient846);fill-opacity:1;stroke:url(#linearGradient854);stroke-width:0.1;stroke-miterlimit:4;stroke-dasharray:none"
       transform="scale(0.87923766,1.1373489)"
       aria-label="SocialPortal ">
      <path
         id="path856"
         style="font-style:normal;font-variant:normal;font-weight:700;font-size:2.52716804px;font-family:'Back to Black Bold Demo';fill:url(#linearGradient846);fill-opacity:1;stroke:url(#linearGradient854);stroke-width:0.1;stroke-miterlimit:4;stroke-dasharray:none"
         d="m 1.9208322,258.22935 q 0.093505,0.0379 0.179429,0.10614 0.088451,0.0657 0.15163,0.1491 0.065706,0.0834 0.1036139,0.17943 0.040435,0.096 0.040435,0.19207 0,0.0404 -0.00758,0.0885 -0.00505,0.048 -0.027799,0.091 -0.020217,0.0404 -0.060652,0.0682 -0.040435,0.0278 -0.1086682,0.0278 -0.065706,0 -0.1238312,-0.0253 -0.055598,-0.0278 -0.055598,-0.0708 0,-0.0202 0.012636,-0.0379 v 0.003 q 0.042962,-0.0632 0.058125,-0.12636 0.01769,-0.0632 0.01769,-0.12383 0,-0.0758 -0.025272,-0.14153 -0.025272,-0.0657 -0.065706,-0.11372 -0.040435,-0.0505 -0.090978,-0.0783 -0.050543,-0.0278 -0.1036139,-0.0278 -0.037907,0 -0.053071,0.043 -0.012636,0.043 -0.012636,0.10867 0,0.0834 0.01769,0.18701 0.01769,0.10109 0.040435,0.19965 0.025272,0.0986 0.048016,0.17943 0.025272,0.0783 0.037907,0.11625 0.063179,0.18195 0.1162497,0.37149 0.055598,0.18954 0.055598,0.37149 0,0.0809 -0.015163,0.16174 -0.015163,0.0834 -0.040435,0.15669 -0.037908,0.096 -0.1162497,0.17943 -0.075815,0.0834 -0.1819561,0.14404 -0.1036139,0.0607 -0.2299723,0.096 -0.1263584,0.0354 -0.2628255,0.0354 -0.1794289,0 -0.34369484,-0.0303 -0.16426592,-0.0278 -0.29062432,-0.0986 -0.12383123,-0.0682 -0.19711911,-0.18448 -0.0732879,-0.11372 -0.0732879,-0.2881 0,-0.13141 0.0480162,-0.25019 0.0480162,-0.11877 0.1263584,-0.20723 0.0783422,-0.0884 0.17942893,-0.14152 0.10108673,-0.0531 0.20975495,-0.0531 0.0732879,0 0.15921157,0.0278 0.085924,0.0253 0.1592116,0.0783 0.075815,0.0505 0.1238312,0.12636 0.050543,0.0758 0.050543,0.17438 0,0.0328 -0.00505,0.0708 -0.00505,0.0354 -0.025272,0.0682 -0.01769,0.0303 -0.055598,0.0505 -0.03538,0.0202 -0.096032,0.0202 -0.03538,0 -0.070761,-0.008 -0.032853,-0.008 -0.060652,-0.0227 -0.027799,-0.0152 -0.045489,-0.0329 -0.0176901,-0.0202 -0.0176901,-0.043 0,-0.005 0.002527,-0.0152 0.002527,-0.0126 0.007581,-0.0228 0.03538,-0.0708 0.03538,-0.13394 0,-0.0884 -0.0555977,-0.13899 -0.0530705,-0.0531 -0.1187769,-0.0531 -0.075815,0 -0.14657575,0.043 -0.0707607,0.0404 -0.12888556,0.1112 -0.0555977,0.0682 -0.0909781,0.16173 -0.0328532,0.091 -0.0328532,0.18954 0,0.10362 0.0404347,0.18196 0.0429619,0.0809 0.11372256,0.13646 0.0707607,0.0581 0.16173876,0.0859 0.0935052,0.0303 0.1971191,0.0303 0.15921155,0 0.27293415,-0.0505 0.1137226,-0.048 0.1870104,-0.13141 0.075815,-0.0834 0.1111954,-0.19459 0.03538,-0.10867 0.03538,-0.22745 0,-0.17437 -0.050543,-0.34875 -0.050543,-0.1769 -0.1111954,-0.35127 -0.058125,-0.16932 -0.106141,-0.33359 -0.048016,-0.16679 -0.048016,-0.31842 0,-0.0935 0.025272,-0.17185 0.025272,-0.0783 0.075815,-0.13647 0.053071,-0.0581 0.1288856,-0.091 0.075815,-0.0328 0.1769017,-0.0328 0.065706,0 0.1288856,0.0126 0.063179,0.0101 0.1162497,0.0328 z" />
      <path
         id="path858"
         style="font-style:normal;font-variant:normal;font-weight:700;font-size:2.52716804px;font-family:'Back to Black Bold Demo';fill:url(#linearGradient846);fill-opacity:1;stroke:url(#linearGradient854);stroke-width:0.1;stroke-miterlimit:4;stroke-dasharray:none"
         d="m 3.3047332,259.00266 q 0,0.0581 -0.032853,0.0885 -0.030326,0.0278 -0.070761,0.0278 -0.040435,0 -0.073288,-0.0253 -0.030326,-0.0253 -0.030326,-0.0682 0,-0.0455 0.030326,-0.0708 -0.010109,-0.005 -0.012636,-0.005 -0.037907,0 -0.083397,0.0404 -0.045489,0.0404 -0.093505,0.10867 -0.048016,0.0657 -0.093505,0.15163 -0.045489,0.0834 -0.080869,0.17437 -0.03538,0.0885 -0.058125,0.17437 -0.020217,0.0859 -0.020217,0.15416 0,0.0581 0.020217,0.10109 0.020217,0.043 0.063179,0.043 0.030326,0 0.068234,-0.0354 0.040435,-0.0379 0.080869,-0.0935 0.042962,-0.0556 0.083396,-0.12131 0.040435,-0.0657 0.070761,-0.12383 -0.045489,-0.0253 -0.063179,-0.0632 -0.01769,-0.0404 -0.01769,-0.091 0,-0.0328 0.010109,-0.0657 0.010109,-0.0329 0.030326,-0.0581 0.020217,-0.0278 0.048016,-0.043 0.027799,-0.0177 0.063179,-0.0177 0.015163,0 0.037907,0.003 0.025272,0 0.048016,0.0126 0.022744,0.0101 0.037908,0.0379 0.01769,0.0278 0.01769,0.0783 0,0.0227 -0.00505,0.0556 -0.00505,0.0303 -0.012636,0.0607 0.073288,-0.008 0.121304,-0.0278 0.048016,-0.0202 0.075815,-0.043 0.030326,-0.0253 0.042962,-0.048 0.015163,-0.0227 0.020217,-0.0354 0.01769,-0.0379 0.058125,-0.0379 0.027799,0 0.048016,0.0202 0.022744,0.0202 0.022744,0.048 0,0.008 -0.00253,0.0152 0,0.005 -0.00505,0.0228 -0.022744,0.048 -0.065706,0.0859 -0.042962,0.0379 -0.1010868,0.0657 -0.058125,0.0253 -0.1263584,0.0404 -0.068233,0.0152 -0.1415214,0.0177 -0.03538,0.0758 -0.088451,0.16427 -0.053071,0.0885 -0.1238312,0.16679 -0.068233,0.0783 -0.1516301,0.13141 -0.083397,0.0505 -0.1819561,0.0505 -0.075815,0 -0.136467,-0.0278 -0.060652,-0.0303 -0.1010868,-0.0809 -0.040435,-0.0505 -0.060652,-0.11625 -0.022744,-0.0682 -0.022744,-0.14152 0,-0.14658 0.055598,-0.30579 0.053071,-0.15921 0.1491029,-0.29062 0.09856,-0.13394 0.2324995,-0.21987 0.1339399,-0.0859 0.2906243,-0.0859 0.063179,0 0.1036139,0.0202 0.042962,0.0177 0.068234,0.0455 0.027799,0.0278 0.040435,0.0657 0.012636,0.0354 0.01769,0.0682 z" />
      <path
         id="path860"
         style="font-style:normal;font-variant:normal;font-weight:700;font-size:2.52716804px;font-family:'Back to Black Bold Demo';fill:url(#linearGradient846);fill-opacity:1;stroke:url(#linearGradient854);stroke-width:0.1;stroke-miterlimit:4;stroke-dasharray:none"
         d="m 4.1735261,259.02541 q 0,-0.0455 0.030326,-0.0708 h -0.00505 q -0.063179,0 -0.1592116,0.1213 -0.093505,0.12131 -0.1971191,0.3437 -0.03538,0.0758 -0.058125,0.16679 -0.020217,0.0885 -0.020217,0.16679 0,0.0733 0.01769,0.1112 0.020217,0.0354 0.070761,0.0354 0.078342,0 0.1718474,-0.0657 0.096032,-0.0657 0.1819561,-0.16174 0.088451,-0.0986 0.1592116,-0.20723 0.070761,-0.10866 0.106141,-0.19459 0.015163,-0.043 0.063179,-0.043 0.027799,0 0.048016,0.0202 0.022744,0.0177 0.022744,0.0404 l -0.00758,0.0303 q -0.055598,0.11372 -0.1440485,0.24513 -0.088451,0.13142 -0.1996463,0.24514 -0.1086682,0.1112 -0.2350266,0.18448 -0.1238313,0.0733 -0.2476625,0.0733 -0.09856,0 -0.1667931,-0.0328 -0.068234,-0.0354 -0.1086682,-0.0885 -0.042962,-0.0531 -0.060652,-0.11878 -0.020217,-0.0657 -0.020217,-0.12889 0,-0.0809 0.022745,-0.16679 0.022744,-0.0885 0.053071,-0.16426 0.1238313,-0.29568 0.2931515,-0.42962 0.1718475,-0.13394 0.3538036,-0.13394 0.030326,0 0.070761,0.008 0.042962,0.008 0.080869,0.0303 0.037908,0.0228 0.063179,0.0607 0.027799,0.0379 0.027799,0.0986 0,0.0657 -0.032853,0.0935 -0.030326,0.0253 -0.070761,0.0253 -0.040435,0 -0.073288,-0.0253 -0.030326,-0.0253 -0.030326,-0.0682 z" />
      <path
         id="path862"
         style="font-style:normal;font-variant:normal;font-weight:700;font-size:2.52716804px;font-family:'Back to Black Bold Demo';fill:url(#linearGradient846);fill-opacity:1;stroke:url(#linearGradient854);stroke-width:0.1;stroke-miterlimit:4;stroke-dasharray:none"
         d="m 5.0000283,258.70951 q 0,0.0202 -0.020217,0.0328 -0.01769,0.0101 -0.048016,0.0101 -0.030326,0 -0.070761,-0.0126 -0.040435,-0.0126 -0.078342,-0.0354 -0.03538,-0.0253 -0.063179,-0.0632 -0.025272,-0.0379 -0.025272,-0.091 0,-0.0227 0.01769,-0.0531 0.01769,-0.0328 0.037908,-0.0682 0.015163,-0.0278 0.027799,-0.0505 0.015163,-0.0253 0.015163,-0.0328 0,-0.0404 0.063179,-0.0404 0.027799,0 0.068233,0.0126 0.040435,0.0126 0.075815,0.0379 0.037907,0.0227 0.063179,0.0607 0.025272,0.0379 0.025272,0.091 0,0.0177 -0.015163,0.0455 -0.012636,0.0278 -0.027799,0.0556 -0.01769,0.0278 -0.032853,0.0581 -0.012636,0.0303 -0.012636,0.043 z m 0.1794289,0.60652 q -0.020217,0.043 -0.060652,0.11625 -0.037908,0.0708 -0.090978,0.15416 -0.05307,0.0834 -0.1162497,0.16932 -0.063179,0.0834 -0.1314127,0.15416 -0.065706,0.0682 -0.13394,0.11372 -0.068234,0.043 -0.1314127,0.043 -0.09856,0 -0.1516301,-0.0682 -0.055598,-0.0708 -0.055598,-0.19207 0,-0.0632 0.01769,-0.13899 0.01769,-0.0758 0.048016,-0.15416 0.027799,-0.0809 0.063179,-0.15921 0.032853,-0.0809 0.065706,-0.15163 0.040435,-0.091 0.073288,-0.16932 0.032853,-0.0783 0.032853,-0.11372 0,-0.005 -0.00505,-0.0152 -0.00505,-0.005 -0.00758,-0.008 -0.00253,-0.005 -0.00253,-0.0177 0,-0.0278 0.040435,-0.048 0.042962,-0.0228 0.1010867,-0.0228 0.032853,0 0.068234,0.0101 0.03538,0.0101 0.065706,0.0328 0.030326,0.0228 0.050543,0.0632 0.020217,0.0404 0.020217,0.10109 0,0.0556 -0.022744,0.12636 -0.020217,0.0682 -0.055598,0.14405 -0.032853,0.0758 -0.073288,0.15163 -0.040435,0.0733 -0.078342,0.14152 -0.05307,0.096 -0.096032,0.17943 -0.042962,0.0834 -0.042962,0.1213 0,0.0152 0.01769,0.0152 0.020217,0 0.058125,-0.0328 0.037908,-0.0328 0.083397,-0.0859 0.048016,-0.0556 0.096032,-0.12131 0.050543,-0.0682 0.093505,-0.13646 0.045489,-0.0708 0.080869,-0.13394 0.03538,-0.0657 0.05307,-0.1112 0.01769,-0.0455 0.063179,-0.0455 0.027799,0 0.048016,0.0177 0.022744,0.0152 0.022744,0.043 0,0.005 -0.00253,0.0152 -0.00253,0.008 -0.00505,0.0126 z" />
      <path
         id="path864"
         style="font-style:normal;font-variant:normal;font-weight:700;font-size:2.52716804px;font-family:'Back to Black Bold Demo';fill:url(#linearGradient846);fill-opacity:1;stroke:url(#linearGradient854);stroke-width:0.1;stroke-miterlimit:4;stroke-dasharray:none"
         d="m 5.898358,259.00014 q 0,0.0126 -0.00253,0.0227 0,0.0101 -0.00253,0.0202 0.01769,-0.0404 0.027799,-0.0708 0.010109,-0.0329 0.010109,-0.0531 0,-0.005 -0.00505,-0.0152 -0.00505,-0.005 -0.00758,-0.008 -0.00253,-0.005 -0.00253,-0.0177 0,-0.0278 0.040435,-0.048 0.042962,-0.0228 0.1010868,-0.0228 0.032853,0 0.068233,0.0101 0.03538,0.0101 0.065706,0.0328 0.030326,0.0228 0.050543,0.0632 0.020217,0.0404 0.020217,0.10109 0,0.0556 -0.022744,0.12636 -0.020217,0.0682 -0.055598,0.14405 -0.032853,0.0758 -0.073288,0.15163 -0.040435,0.0733 -0.078342,0.14152 -0.05307,0.096 -0.096032,0.17943 -0.042962,0.0834 -0.042962,0.1213 0,0.0152 0.01769,0.0152 0.020217,0 0.058125,-0.0328 0.037908,-0.0328 0.083397,-0.0859 0.048016,-0.0556 0.096032,-0.12131 0.050543,-0.0682 0.093505,-0.13646 0.045489,-0.0708 0.080869,-0.13394 0.03538,-0.0657 0.053071,-0.1112 0.01769,-0.0455 0.063179,-0.0455 0.027799,0 0.048016,0.0177 0.022744,0.0152 0.022744,0.043 0,0.005 -0.00253,0.0152 -0.00253,0.008 -0.00505,0.0126 -0.025272,0.0505 -0.068233,0.12636 -0.040435,0.0733 -0.096032,0.15668 -0.053071,0.0834 -0.1162497,0.1668 -0.060652,0.0834 -0.1263584,0.15163 -0.065706,0.0657 -0.1314128,0.10867 -0.065706,0.0404 -0.1263584,0.0404 -0.088451,0 -0.1440485,-0.0581 -0.053071,-0.0581 -0.063179,-0.15922 -0.070761,0.096 -0.1541573,0.15669 -0.083397,0.0607 -0.1895376,0.0607 -0.096032,0 -0.1642659,-0.0328 -0.068234,-0.0354 -0.1086682,-0.0885 -0.042962,-0.0531 -0.060652,-0.11878 -0.020217,-0.0657 -0.020217,-0.12889 0,-0.0809 0.022744,-0.16679 0.022744,-0.0885 0.053071,-0.16426 0.1238313,-0.29568 0.2931515,-0.42962 0.1718474,-0.13394 0.3538035,-0.13394 0.030326,0 0.070761,0.008 0.042962,0.008 0.080869,0.0303 0.037908,0.0228 0.063179,0.0607 0.027799,0.0379 0.027799,0.0986 z m -0.2072278,0.0253 q 0,-0.0455 0.030326,-0.0708 h -0.00505 q -0.063179,0 -0.1592116,0.1213 -0.093505,0.12131 -0.1971191,0.3437 -0.03538,0.0733 -0.055598,0.15921 -0.020217,0.0859 -0.020217,0.15921 0,0.0657 0.01769,0.11625 0.020217,0.048 0.063179,0.048 0.037907,0 0.080869,-0.043 0.042962,-0.0455 0.088451,-0.11372 0.045489,-0.0708 0.090978,-0.15668 0.045489,-0.0859 0.088451,-0.1668 v 0.003 q 0.015163,-0.0303 0.030326,-0.0581 0.015163,-0.0303 0.030326,-0.0581 v 0.003 l 0.048016,-0.10614 0.060652,-0.13647 q -0.012636,0.0278 -0.037908,0.0404 -0.022744,0.0101 -0.050543,0.0101 -0.040435,0 -0.073288,-0.0253 -0.030326,-0.0253 -0.030326,-0.0682 z" />
      <path
         id="path866"
         style="font-style:normal;font-variant:normal;font-weight:700;font-size:2.52716804px;font-family:'Back to Black Bold Demo';fill:url(#linearGradient846);fill-opacity:1;stroke:url(#linearGradient854);stroke-width:0.1;stroke-miterlimit:4;stroke-dasharray:none"
         d="m 7.0847054,259.31603 q -0.020217,0.043 -0.060652,0.11625 -0.037908,0.0708 -0.090978,0.15416 -0.05307,0.0834 -0.1162497,0.16932 -0.063179,0.0834 -0.1314128,0.15416 -0.065706,0.0682 -0.1339399,0.11372 -0.068233,0.043 -0.1314127,0.043 -0.09856,0 -0.1516301,-0.0682 -0.055598,-0.0708 -0.055598,-0.19207 0,-0.0152 0.00253,-0.0328 0,-0.0202 0.00253,-0.0354 0.012636,-0.0682 0.050543,-0.17185 0.03538,-0.10361 0.083397,-0.22744 0.048016,-0.12383 0.1036139,-0.25777 0.058125,-0.13394 0.1137226,-0.2603 0.050543,-0.11373 0.096032,-0.21987 0.048016,-0.10866 0.083397,-0.19712 0.037907,-0.091 0.058125,-0.15415 0.022744,-0.0657 0.022744,-0.096 v -0.003 q -0.010109,-0.008 -0.010109,-0.0253 0,-0.0278 0.040435,-0.048 0.042962,-0.0227 0.1010867,-0.0227 0.030326,0 0.065706,0.0101 0.03538,0.008 0.065706,0.0303 0.030326,0.0202 0.050543,0.0581 0.020217,0.0354 0.020217,0.091 0,0.0657 -0.03538,0.17185 -0.032853,0.10614 -0.088451,0.23503 -0.055598,0.12636 -0.1238312,0.26788 -0.065706,0.13899 -0.1339399,0.27293 -0.055598,0.1112 -0.1086682,0.21734 -0.050543,0.10614 -0.090978,0.19712 -0.040435,0.091 -0.065706,0.16174 -0.025272,0.0682 -0.025272,0.10614 0,0.0202 0.00758,0.0202 0.022744,0 0.060652,-0.0328 0.037908,-0.0354 0.083397,-0.091 0.045489,-0.0556 0.093505,-0.12383 0.050543,-0.0682 0.093505,-0.13647 0.045489,-0.0708 0.078342,-0.13141 0.03538,-0.0632 0.050543,-0.10614 0.01769,-0.0455 0.063179,-0.0455 0.027799,0 0.048016,0.0177 0.022745,0.0152 0.022745,0.043 0,0.005 -0.00253,0.0152 -0.00253,0.008 -0.00505,0.0126 z" />
      <path
         id="path868"
         style="font-style:normal;font-variant:normal;font-weight:700;font-size:2.52716804px;font-family:'Back to Black Bold Demo';fill:url(#linearGradient846);fill-opacity:1;stroke:url(#linearGradient854);stroke-width:0.1;stroke-miterlimit:4;stroke-dasharray:none"
         d="m 9.1783851,258.79544 q 0.045489,0.12635 0.045489,0.2426 0,0.12383 -0.042962,0.24514 -0.040435,0.1213 -0.1137225,0.2325 -0.070761,0.11119 -0.1718474,0.2047 -0.09856,0.0935 -0.2148093,0.16426 -0.1137226,0.0682 -0.2426082,0.10867 -0.1263584,0.0379 -0.2527168,0.0379 -0.03538,0 -0.080869,-0.003 -0.045489,-0.005 -0.088451,-0.0152 -0.042962,-0.0126 -0.073288,-0.0303 -0.027799,-0.0202 -0.027799,-0.0531 0,-0.0278 0.020217,-0.048 0.020217,-0.0227 0.048016,-0.0278 0.1592116,-0.0101 0.300733,-0.0834 0.1440486,-0.0758 0.2501896,-0.19206 0.1086683,-0.11625 0.1718475,-0.26536 0.065706,-0.1491 0.065706,-0.31336 0,-0.12384 -0.042962,-0.23503 -0.042962,-0.11372 -0.1263584,-0.20217 -0.080869,-0.0885 -0.1996463,-0.14658 -0.1162497,-0.0581 -0.2628255,-0.0708 -0.1162497,0.008 -0.2223908,0.0505 -0.106141,0.0404 -0.1996462,0.10867 -0.090978,0.0682 -0.1667931,0.15669 -0.075815,0.0859 -0.1314128,0.18448 -0.05307,0.096 -0.083397,0.19712 -0.027799,0.10108 -0.027799,0.19459 0,0.0809 0.020217,0.15416 0.022744,0.0733 0.070761,0.12888 0.00758,0.0101 0.00758,0.0177 0.00253,0.008 0.00253,0.0152 0,0.0177 -0.01769,0.0404 -0.01769,0.0202 -0.045489,0.0379 -0.027799,0.0177 -0.063179,0.0303 -0.03538,0.0126 -0.070761,0.0126 -0.070761,0 -0.121304,-0.0455 -0.048016,-0.048 -0.080869,-0.11119 -0.030326,-0.0657 -0.042962,-0.13394 -0.015163,-0.0708 -0.015163,-0.11625 0,-0.13394 0.050543,-0.26536 0.053071,-0.13141 0.1440486,-0.25019 0.090978,-0.1213 0.2097549,-0.22239 0.1213041,-0.10361 0.2577712,-0.17943 0.136467,-0.0758 0.2805156,-0.11877 0.1465758,-0.043 0.28557,-0.0455 0.1238312,0 0.270407,0.0278 0.1491029,0.0253 0.2880971,0.0935 0.1415214,0.0682 0.2577712,0.18701 0.1162497,0.11878 0.1819561,0.30074 z m -1.9080119,1.7488 q -0.00505,-0.0152 -0.00758,-0.0278 0,-0.0126 0,-0.0303 0,-0.0682 0.027799,-0.18448 0.030326,-0.11625 0.078342,-0.2603 0.048016,-0.14405 0.106141,-0.30579 0.060652,-0.16174 0.1187769,-0.32095 0.045489,-0.12383 0.088451,-0.23755 0.042962,-0.11625 0.073288,-0.21228 0.032853,-0.096 0.05307,-0.1668 0.020217,-0.0708 0.020217,-0.10614 0,-0.0126 0,-0.008 0.00253,0.003 0,-0.003 -0.012636,-0.008 -0.012636,-0.0253 0,-0.0253 0.058125,-0.048 0.058125,-0.0253 0.1288855,-0.0253 0.040435,0 0.075815,0.008 0.037907,0.008 0.065706,0.0303 0.030326,0.0202 0.045489,0.0556 0.01769,0.0328 0.01769,0.0859 0,0.0783 -0.030326,0.19712 -0.030326,0.11625 -0.078342,0.25272 -0.048016,0.13647 -0.1086682,0.28557 -0.058125,0.1491 -0.1162497,0.29315 -0.050543,0.12636 -0.09856,0.24766 -0.048016,0.11878 -0.085924,0.22239 -0.037908,0.10614 -0.060652,0.18954 -0.022744,0.0834 -0.022744,0.13394 v 0.0126 q 0,0.0354 -0.042962,0.0607 -0.042962,0.0278 -0.1061411,0.0278 -0.055598,0 -0.1111954,-0.0329 -0.053071,-0.0303 -0.078342,-0.11119 z" />
      <path
         id="path870"
         style="font-style:normal;font-variant:normal;font-weight:700;font-size:2.52716804px;font-family:'Back to Black Bold Demo';fill:url(#linearGradient846);fill-opacity:1;stroke:url(#linearGradient854);stroke-width:0.1;stroke-miterlimit:4;stroke-dasharray:none"
         d="m 10.214959,259.00266 q 0,0.0581 -0.03285,0.0885 -0.03033,0.0278 -0.07076,0.0278 -0.04044,0 -0.07329,-0.0253 -0.03033,-0.0253 -0.03033,-0.0682 0,-0.0455 0.03033,-0.0708 -0.01011,-0.005 -0.01264,-0.005 -0.037908,0 -0.083397,0.0404 -0.045489,0.0404 -0.093505,0.10867 -0.048016,0.0657 -0.093505,0.15163 -0.045489,0.0834 -0.080869,0.17437 -0.03538,0.0885 -0.058125,0.17437 -0.020217,0.0859 -0.020217,0.15416 0,0.0581 0.020217,0.10109 0.020217,0.043 0.063179,0.043 0.030326,0 0.068234,-0.0354 0.040435,-0.0379 0.080869,-0.0935 0.042962,-0.0556 0.083397,-0.12131 0.040435,-0.0657 0.070761,-0.12383 -0.045489,-0.0253 -0.063179,-0.0632 -0.01769,-0.0404 -0.01769,-0.091 0,-0.0328 0.010109,-0.0657 0.010109,-0.0329 0.030326,-0.0581 0.020217,-0.0278 0.048016,-0.043 0.027798,-0.0177 0.063179,-0.0177 0.01516,0 0.03791,0.003 0.02527,0 0.04802,0.0126 0.02274,0.0101 0.03791,0.0379 0.01769,0.0278 0.01769,0.0783 0,0.0227 -0.0051,0.0556 -0.0051,0.0303 -0.01264,0.0607 0.07329,-0.008 0.121304,-0.0278 0.04802,-0.0202 0.07581,-0.043 0.03033,-0.0253 0.04296,-0.048 0.01516,-0.0227 0.02022,-0.0354 0.01769,-0.0379 0.05813,-0.0379 0.0278,0 0.04802,0.0202 0.02275,0.0202 0.02275,0.048 0,0.008 -0.0025,0.0152 0,0.005 -0.0051,0.0228 -0.02274,0.048 -0.06571,0.0859 -0.04296,0.0379 -0.101087,0.0657 -0.05812,0.0253 -0.126358,0.0404 -0.06823,0.0152 -0.141521,0.0177 -0.03538,0.0758 -0.08845,0.16427 -0.053071,0.0885 -0.1238316,0.16679 -0.068233,0.0783 -0.1516301,0.13141 -0.083397,0.0505 -0.1819561,0.0505 -0.075815,0 -0.1364671,-0.0278 -0.060652,-0.0303 -0.1010867,-0.0809 -0.040435,-0.0505 -0.060652,-0.11625 -0.022744,-0.0682 -0.022744,-0.14152 0,-0.14658 0.055598,-0.30579 0.053071,-0.15921 0.1491029,-0.29062 0.09856,-0.13394 0.2324995,-0.21987 0.1339399,-0.0859 0.2906243,-0.0859 0.063179,0 0.1036137,0.0202 0.04296,0.0177 0.06823,0.0455 0.0278,0.0278 0.04043,0.0657 0.01264,0.0354 0.01769,0.0682 z" />
      <path
         id="path872"
         style="font-style:normal;font-variant:normal;font-weight:700;font-size:2.52716804px;font-family:'Back to Black Bold Demo';fill:url(#linearGradient846);fill-opacity:1;stroke:url(#linearGradient854);stroke-width:0.1;stroke-miterlimit:4;stroke-dasharray:none"
         d="m 10.5581,259.3413 q -0.02022,0.0354 -0.06065,0.0354 -0.0278,0 -0.04802,-0.0177 -0.02022,-0.0177 -0.02022,-0.0455 0,-0.0152 0.02022,-0.0581 0.01769,-0.0455 0.04044,-0.0986 0.02022,-0.048 0.04043,-0.096 0.02022,-0.048 0.03285,-0.0885 -0.0556,-0.0354 -0.09603,-0.0935 -0.04044,-0.0607 -0.04044,-0.11877 0,-0.0834 0.04549,-0.14405 0.04549,-0.0632 0.141522,-0.0632 0.05813,0 0.103614,0.048 0.04802,0.0455 0.04802,0.11373 0,0.0303 -0.0025,0.0783 -0.0025,0.048 -0.01011,0.0859 0.02527,0.005 0.05054,0.005 0.05307,0 0.08087,-0.0126 0.03033,-0.0152 0.0556,-0.0303 v 0.003 q 0.02527,-0.0126 0.05054,-0.0227 0.02527,-0.0126 0.06065,-0.0126 0.03033,0 0.06571,0.0101 0.03791,0.008 0.06823,0.0328 0.03285,0.0228 0.05307,0.0632 0.02022,0.0404 0.02022,0.10109 0,0.0556 -0.02275,0.12636 -0.02022,0.0682 -0.0556,0.14405 -0.03285,0.0758 -0.07329,0.15163 -0.04044,0.0733 -0.07834,0.14152 -0.05307,0.096 -0.09603,0.17943 -0.04296,0.0834 -0.04296,0.1213 0,0.0152 0.01769,0.0152 0.02022,0 0.05813,-0.0328 0.03791,-0.0328 0.0834,-0.0859 0.04802,-0.0556 0.09603,-0.12131 0.05054,-0.0682 0.0935,-0.13646 0.04549,-0.0708 0.08087,-0.13394 0.03538,-0.0657 0.05307,-0.1112 0.01769,-0.0455 0.06318,-0.0455 0.0278,0 0.04802,0.0177 0.02274,0.0152 0.02274,0.043 0,0.005 -0.0025,0.0152 -0.0025,0.008 -0.0051,0.0126 -0.02527,0.0505 -0.06823,0.12636 -0.04044,0.0733 -0.09603,0.15668 -0.05307,0.0834 -0.11625,0.1668 -0.06065,0.0834 -0.126358,0.15163 -0.06571,0.0657 -0.131413,0.10867 -0.06571,0.0404 -0.126359,0.0404 -0.09856,0 -0.154157,-0.0682 -0.05307,-0.0708 -0.05307,-0.19207 0,-0.0682 0.01769,-0.14405 0.02022,-0.0758 0.04802,-0.15415 0.03033,-0.0809 0.06318,-0.15921 0.03538,-0.0784 0.06823,-0.15163 0.03033,-0.0657 0.04802,-0.0986 0.01769,-0.0354 0.03033,-0.0784 -0.04802,0.0101 -0.106141,0.0101 -0.04802,0 -0.09351,-0.008 -0.01011,0.0278 -0.03033,0.0733 -0.01769,0.043 -0.04044,0.091 -0.02022,0.048 -0.04043,0.091 -0.02022,0.043 -0.03285,0.0657 z" />
      <path
         id="path874"
         style="font-style:normal;font-variant:normal;font-weight:700;font-size:2.52716804px;font-family:'Back to Black Bold Demo';fill:url(#linearGradient846);fill-opacity:1;stroke:url(#linearGradient854);stroke-width:0.1;stroke-miterlimit:4;stroke-dasharray:none"
         d="m 11.064008,258.72973 q -0.0025,0.0354 -0.02022,0.0556 -0.01769,0.0177 -0.04296,0.0177 -0.03033,0 -0.06065,-0.0379 -0.03285,-0.0379 -0.03285,-0.11625 0,-0.0885 0.03791,-0.14658 0.03791,-0.0581 0.106141,-0.091 0.06571,-0.0329 0.159212,-0.0455 0.09098,-0.0126 0.197119,-0.0126 0.08087,0 0.166793,0.005 0.08592,0.005 0.179429,0.0126 0.0278,-0.0708 0.04549,-0.13141 0.02022,-0.0607 0.02022,-0.0859 0,-0.005 -0.0025,-0.008 -0.0076,-0.005 -0.0076,-0.0202 0,-0.0278 0.04043,-0.048 0.04296,-0.0227 0.101087,-0.0227 0.03033,0 0.06571,0.0101 0.03538,0.008 0.06571,0.0303 0.03033,0.0202 0.05054,0.0556 0.02022,0.0354 0.02022,0.091 0,0.0657 -0.02527,0.15668 h 0.06823 q 0.09351,0 0.181957,-0.005 0.08845,-0.005 0.156684,-0.0152 0.06823,-0.0101 0.108668,-0.0253 0.04296,-0.0152 0.04296,-0.0379 0,-0.0607 0.05307,-0.0607 0.0278,0 0.06318,0.0328 0.03538,0.0303 0.03538,0.0708 0,0.043 -0.06571,0.0834 -0.06318,0.0404 -0.171848,0.0708 -0.106141,0.0303 -0.247662,0.0506 -0.141522,0.0202 -0.295679,0.0253 -0.0556,0.13646 -0.13394,0.29062 -0.07582,0.15416 -0.149103,0.30579 -0.05812,0.11372 -0.111195,0.22239 -0.05054,0.10867 -0.09351,0.19965 -0.04044,0.091 -0.06571,0.16174 -0.02274,0.0682 -0.02274,0.10614 0,0.0202 0.0076,0.0202 0.02275,0 0.06065,-0.0328 0.03791,-0.0354 0.0834,-0.091 0.04549,-0.0556 0.09351,-0.12383 0.05054,-0.0682 0.0935,-0.13647 0.04549,-0.0708 0.07834,-0.13141 0.03538,-0.0632 0.05054,-0.10614 0.01769,-0.0455 0.06318,-0.0455 0.0278,0 0.04802,0.0177 0.02275,0.0152 0.02275,0.043 0,0.005 -0.0025,0.0152 -0.0025,0.008 -0.0051,0.0126 -0.02527,0.0505 -0.06823,0.12636 -0.04043,0.0733 -0.09603,0.15668 -0.05307,0.0834 -0.116249,0.1668 -0.06065,0.0834 -0.126359,0.15163 -0.06571,0.0657 -0.131412,0.10867 -0.06571,0.0404 -0.126359,0.0404 -0.09856,0 -0.15163,-0.0682 -0.0556,-0.0708 -0.0556,-0.19207 0,-0.0177 0.0025,-0.0328 0,-0.0177 0.0025,-0.0354 0.0076,-0.0607 0.04043,-0.15669 0.03285,-0.0986 0.08087,-0.21733 0.04802,-0.12131 0.106141,-0.25525 0.05813,-0.13394 0.11625,-0.26788 l 0.111195,-0.25271 q -0.123831,0 -0.232499,0.005 -0.108669,0.003 -0.187011,0.0177 -0.08087,0.0126 -0.128885,0.0404 -0.04802,0.0278 -0.05054,0.0758 z" />
      <path
         id="path876"
         style="font-style:normal;font-variant:normal;font-weight:700;font-size:2.52716804px;font-family:'Back to Black Bold Demo';fill:url(#linearGradient846);fill-opacity:1;stroke:url(#linearGradient854);stroke-width:0.1;stroke-miterlimit:4;stroke-dasharray:none"
         d="m 12.793775,259.00014 q 0,0.0126 -0.0025,0.0227 0,0.0101 -0.0025,0.0202 0.01769,-0.0404 0.0278,-0.0708 0.01011,-0.0329 0.01011,-0.0531 0,-0.005 -0.0051,-0.0152 -0.0051,-0.005 -0.0076,-0.008 -0.0025,-0.005 -0.0025,-0.0177 0,-0.0278 0.04044,-0.048 0.04296,-0.0228 0.101087,-0.0228 0.03285,0 0.06823,0.0101 0.03538,0.0101 0.06571,0.0328 0.03033,0.0228 0.05054,0.0632 0.02022,0.0404 0.02022,0.10109 0,0.0556 -0.02274,0.12636 -0.02022,0.0682 -0.0556,0.14405 -0.03285,0.0758 -0.07329,0.15163 -0.04043,0.0733 -0.07834,0.14152 -0.05307,0.096 -0.09603,0.17943 -0.04296,0.0834 -0.04296,0.1213 0,0.0152 0.01769,0.0152 0.02022,0 0.05812,-0.0328 0.03791,-0.0328 0.0834,-0.0859 0.04802,-0.0556 0.09603,-0.12131 0.05054,-0.0682 0.09351,-0.13646 0.04549,-0.0708 0.08087,-0.13394 0.03538,-0.0657 0.05307,-0.1112 0.01769,-0.0455 0.06318,-0.0455 0.0278,0 0.04802,0.0177 0.02275,0.0152 0.02275,0.043 0,0.005 -0.0025,0.0152 -0.0025,0.008 -0.0051,0.0126 -0.02527,0.0505 -0.06823,0.12636 -0.04044,0.0733 -0.09603,0.15668 -0.05307,0.0834 -0.116249,0.1668 -0.06065,0.0834 -0.126359,0.15163 -0.06571,0.0657 -0.131412,0.10867 -0.06571,0.0404 -0.126359,0.0404 -0.08845,0 -0.144048,-0.0581 -0.05307,-0.0581 -0.06318,-0.15922 -0.07076,0.096 -0.154157,0.15669 -0.0834,0.0607 -0.189537,0.0607 -0.09603,0 -0.164266,-0.0328 -0.06823,-0.0354 -0.108669,-0.0885 -0.04296,-0.0531 -0.06065,-0.11878 -0.02022,-0.0657 -0.02022,-0.12889 0,-0.0809 0.02274,-0.16679 0.02274,-0.0885 0.05307,-0.16426 0.123831,-0.29568 0.293152,-0.42962 0.171847,-0.13394 0.353803,-0.13394 0.03033,0 0.07076,0.008 0.04296,0.008 0.08087,0.0303 0.03791,0.0228 0.06318,0.0607 0.0278,0.0379 0.0278,0.0986 z m -0.207228,0.0253 q 0,-0.0455 0.03033,-0.0708 h -0.0051 q -0.06318,0 -0.159211,0.1213 -0.09351,0.12131 -0.19712,0.3437 -0.03538,0.0733 -0.0556,0.15921 -0.02022,0.0859 -0.02022,0.15921 0,0.0657 0.01769,0.11625 0.02022,0.048 0.06318,0.048 0.03791,0 0.08087,-0.043 0.04296,-0.0455 0.08845,-0.11372 0.04549,-0.0708 0.09098,-0.15668 0.04549,-0.0859 0.08845,-0.1668 v 0.003 q 0.01516,-0.0303 0.03033,-0.0581 0.01516,-0.0303 0.03033,-0.0581 v 0.003 l 0.04802,-0.10614 0.06065,-0.13647 q -0.01264,0.0278 -0.03791,0.0404 -0.02275,0.0101 -0.05054,0.0101 -0.04043,0 -0.07329,-0.0253 -0.03033,-0.0253 -0.03033,-0.0682 z" />
      <path
         id="path878"
         style="font-style:normal;font-variant:normal;font-weight:700;font-size:2.52716804px;font-family:'Back to Black Bold Demo';fill:url(#linearGradient846);fill-opacity:1;stroke:url(#linearGradient854);stroke-width:0.1;stroke-miterlimit:4;stroke-dasharray:none"
         d="m 13.980123,259.31603 q -0.02022,0.043 -0.06065,0.11625 -0.03791,0.0708 -0.09098,0.15416 -0.05307,0.0834 -0.11625,0.16932 -0.06318,0.0834 -0.131412,0.15416 -0.06571,0.0682 -0.13394,0.11372 -0.06823,0.043 -0.131413,0.043 -0.09856,0 -0.15163,-0.0682 -0.0556,-0.0708 -0.0556,-0.19207 0,-0.0152 0.0025,-0.0328 0,-0.0202 0.0025,-0.0354 0.01264,-0.0682 0.05054,-0.17185 0.03538,-0.10361 0.0834,-0.22744 0.04802,-0.12383 0.103614,-0.25777 0.05812,-0.13394 0.113723,-0.2603 0.05054,-0.11373 0.09603,-0.21987 0.04802,-0.10866 0.0834,-0.19712 0.03791,-0.091 0.05813,-0.15415 0.02274,-0.0657 0.02274,-0.096 v -0.003 q -0.01011,-0.008 -0.01011,-0.0253 0,-0.0278 0.04044,-0.048 0.04296,-0.0227 0.101087,-0.0227 0.03033,0 0.06571,0.0101 0.03538,0.008 0.06571,0.0303 0.03033,0.0202 0.05054,0.0581 0.02022,0.0354 0.02022,0.091 0,0.0657 -0.03538,0.17185 -0.03285,0.10614 -0.08845,0.23503 -0.0556,0.12636 -0.123831,0.26788 -0.06571,0.13899 -0.13394,0.27293 -0.0556,0.1112 -0.108668,0.21734 -0.05054,0.10614 -0.09098,0.19712 -0.04044,0.091 -0.06571,0.16174 -0.02527,0.0682 -0.02527,0.10614 0,0.0202 0.0076,0.0202 0.02275,0 0.06065,-0.0328 0.03791,-0.0354 0.0834,-0.091 0.04549,-0.0556 0.0935,-0.12383 0.05054,-0.0682 0.09351,-0.13647 0.04549,-0.0708 0.07834,-0.13141 0.03538,-0.0632 0.05054,-0.10614 0.01769,-0.0455 0.06318,-0.0455 0.0278,0 0.04802,0.0177 0.02275,0.0152 0.02275,0.043 0,0.005 -0.0025,0.0152 -0.0025,0.008 -0.0051,0.0126 z" />
    </g>
  </g>
</svg>
